<?xml version="1.0" encoding="utf-8"?>
<!-- Generator: Adobe Illustrator 16.0.0, SVG Export Plug-In . SVG Version: 6.00 Build 0)  -->
<!DOCTYPE svg PUBLIC "-//W3C//DTD SVG 1.1//EN" "http://www.w3.org/Graphics/SVG/1.1/DTD/svg11.dtd">
<svg version="1.1" id="Layer_1" xmlns="http://www.w3.org/2000/svg" xmlns:xlink="http://www.w3.org/1999/xlink" x="0px" y="0px"
	 width="22px" height="22px" viewBox="0 0 22 22" enable-background="new 0 0 22 22" xml:space="preserve">
<path opacity="0.24" d="M11,15c-0.552,0-1,0.447-1,1v4c0,0.553,0.448,1,1,1c0.553,0,1-0.447,1-1v-4C12,15.447,11.553,15,11,15z"/>
<path opacity="0.72" d="M11,1c-0.552,0-1,0.447-1,1v4c0,0.553,0.448,1,1,1c0.553,0,1-0.447,1-1V2C12,1.447,11.553,1,11,1z"/>
<path opacity="0.16" d="M13,14.465c-0.478,0.275-0.642,0.887-0.365,1.365l2,3.465c0.276,0.479,0.888,0.642,1.365,0.365
	c0.479-0.275,0.643-0.887,0.367-1.365l-2-3.465C14.09,14.352,13.479,14.188,13,14.465z"/>
<path opacity="0.64" d="M6,2.34C5.522,2.616,5.358,3.227,5.635,3.706l2,3.464C7.911,7.649,8.522,7.812,9,7.536
	C9.479,7.26,9.643,6.649,9.367,6.17l-2-3.464C7.09,2.227,6.479,2.063,6,2.34z"/>
<path opacity="0.08" d="M14.465,13.001c-0.275,0.478-0.111,1.089,0.367,1.364l3.464,2.001c0.479,0.276,1.09,0.112,1.364-0.366
	c0.278-0.479,0.113-1.089-0.363-1.365l-3.465-2.002C15.353,12.357,14.742,12.521,14.465,13.001z"/>
<path opacity="0.56" d="M2.34,6C2.064,6.479,2.229,7.089,2.707,7.366l3.465,2C6.65,9.643,7.262,9.479,7.537,9
	c0.277-0.479,0.112-1.09-0.365-1.367l-3.465-2C3.228,5.358,2.617,5.521,2.34,6z"/>
<path d="M15.002,11.002c0,0.552,0.447,0.998,1,0.998h4c0.553,0,1-0.448,0.998-1c0.002-0.553-0.445-1-0.996-1h-4.002
	C15.449,10,15.002,10.448,15.002,11.002z"/>
<path opacity="0.48" d="M1.001,11.001C1.002,11.553,1.449,12,2.002,12h4c0.553,0,1-0.447,1-0.999c0-0.554-0.447-1.001-1-1.001h-4
	C1.448,10,1.001,10.447,1.001,11.001z"/>
<path opacity="0.88" d="M14.467,9c0.275,0.478,0.887,0.642,1.365,0.365l3.465-2C19.775,7.089,19.938,6.477,19.661,6
	c-0.274-0.479-0.886-0.643-1.363-0.368l-3.466,2C14.354,7.91,14.189,8.521,14.467,9z"/>
<path opacity="0.4" d="M2.342,16c0.277,0.479,0.888,0.642,1.366,0.365l3.464-2C7.65,14.089,7.814,13.479,7.539,13
	c-0.277-0.479-0.889-0.643-1.367-0.367l-3.464,2C2.229,14.91,2.064,15.521,2.342,16z"/>
<path opacity="0.8" d="M13.003,7.535c0.478,0.276,1.089,0.112,1.365-0.366l2.001-3.464c0.275-0.479,0.111-1.09-0.367-1.365
	c-0.479-0.278-1.089-0.113-1.365,0.363l-2.002,3.465C12.359,6.647,12.523,7.258,13.003,7.535z"/>
<path opacity="0.32" d="M6.002,19.659c0.48,0.276,1.09,0.112,1.366-0.366l2-3.465c0.276-0.479,0.112-1.089-0.364-1.365
	c-0.48-0.277-1.092-0.112-1.368,0.365l-1.999,3.465C5.359,18.772,5.523,19.384,6.002,19.659z"/>
</svg>
